# xmcd CD database file
#
# Track frame offsets:
#	150
#	13757
#	30901
#	53958
#	75770
#	97612
#	133104
#	165764
#	185463
#	215094
#	230262
#
# Disc length: 3334 seconds
#
# Revision: 0
# Processed by: cddbd v1.5.2PL0 Copyright (c) Steve Scherf et al.
# Submitted via: CDex 1.70beta2
#
DISCID=750d040b
DTITLE=Brother Bagman - Rise Above
DYEAR=2009
DGENRE=Blues
TTITLE0=Ticket For A Ride
TTITLE1=Rise Above
TTITLE2=My Time
TTITLE3=Come and Go
TTITLE4=Curtis
TTITLE5=Old Self
TTITLE6=Gettin' Back
TTITLE7=Runaway Soul
TTITLE8=Deeper
TTITLE9=My First Beer
TTITLE10=Musical Fruit
EXTD=YEAR: 2009
EXTT0=
EXTT1=
EXTT2=
EXTT3=
EXTT4=
EXTT5=
EXTT6=
EXTT7=
EXTT8=
EXTT9=
EXTT10=
PLAYORDER=
